<?xml version="1.0" standalone="no"?>
<!DOCTYPE svg PUBLIC "-//W3C//DTD SVG 20010904//EN"
 "http://www.w3.org/TR/2001/REC-SVG-20010904/DTD/svg10.dtd">
<svg version="1.0" xmlns="http://www.w3.org/2000/svg"
 width="519.000000pt" height="519.000000pt" viewBox="0 0 519.000000 519.000000"
 preserveAspectRatio="xMidYMid meet">
<metadata>
Created by potrace 1.11, written by Peter Selinger 2001-2013
</metadata>
<g transform="translate(0.000000,519.000000) scale(0.100000,-0.100000)"
fill="#000000" stroke="none">
<path d="M176 5174 c-32 -10 -64 -31 -96 -63 -87 -88 -80 149 -80 -2516 0
-2664 -7 -2428 80 -2515 87 -87 -149 -80 2515 -80 2664 0 2428 -7 2515 80 87
87 80 -149 80 2515 0 2664 7 2428 -80 2515 -87 87 150 80 -2519 79 -2068 0
-2372 -2 -2415 -15z m3041 -1666 c-2 -7 -149 -440 -326 -963 -177 -522 -323
-951 -325 -952 -2 -2 -62 -2 -134 -1 l-130 3 326 963 327 962 133 0 c103 0
133 -3 129 -12z m-2037 -533 l0 -235 220 0 220 0 0 -165 0 -165 -220 0 -220 0
0 -245 0 -245 -170 0 -170 0 0 245 0 245 -220 0 -220 0 0 165 0 165 220 0 220
0 0 235 0 235 170 0 170 0 0 -235z m3518 -472 l3 -143 -346 0 -345 0 0 145 0
145 343 -2 342 -3 3 -142z"/>
</g>
</svg>
